PathFileType	4	(X/Y/Z)	G:\GRF\jawan data\CompiledGRF\03. Mohit Kumar\0231~ac~Walking 01_markers.trc
DataRate	CameraRate	NumFrames	NumMarkers	Units	OrigDataRate	OrigDataStartFrame	OrigNumFrames
100.000000	100.000000	7	18	mm	100.000000	402	805
Frame#	Time	c7			r should			l should			sacrum			r asis			r bar 1			r knee 1			r bar 2			r mall			r heel			r met			l asis			l bar 1			l knee 1			l bar 2			l mall			l heel			l met			
		X1	Y1	Z1	X2	Y2	Z2	X3	Y3	Z3	X4	Y4	Z4	X5	Y5	Z5	X6	Y6	Z6	X7	Y7	Z7	X8	Y8	Z8	X9	Y9	Z9	X10	Y10	Z10	X11	Y11	Z11	X12	Y12	Z12	X13	Y13	Z13	X14	Y14	Z14	X15	Y15	Z15	X16	Y16	Z16	X17	Y17	Z17	X18	Y18	Z18	

403	4.02	263.8942260742188	1494.614624023438	266.1011352539063	359.0030212402344	1434.39111328125	429.4440002441406	334.5581665039063	1444.615600585938	91.28028869628906	241.7388610839844	1026.419677734375	238.7519378662109	412.5860290527344	997.8751831054688	382.5276489257813	271.8738098144531	596.093017578125	427.5743408203125	271.6221923828125	509.2675170898438	372.4408264160156	128.1827087402344	212.0362548828125	381.0623779296875	99.76368713378906	88.27670288085938	314.2923889160156	37.57305526733398	61.05513381958008	265.4638366699219	241.5920867919922	39.23081970214844	312.4464721679688	434.1747436523438	1006.620666503906	132.9528656005859	507.5078735351563	599.9822998046875	52.43630218505859	556.8350830078125	529.3364868164063	107.3861846923828	613.6422729492188	259.8195495605469	53.34175491333008	684.465576171875	95.56244659423828	118.047607421875	641.3377685546875	37.01616668701172	171.2386169433594	825.840576171875	107.1973648071289	147.4131011962891	
404	4.03	272.9535522460938	1493.811401367188	264.6658325195313	368.329833984375	1433.850341796875	428.1633911132813	343.9918212890625	1443.282104492188	90.02280426025391	251.2756042480469	1025.758422851563	237.3963470458984	421.5771484375	997.0602416992188	382.0972595214844	278.7542419433594	595.8734130859375	427.0493774414063	278.327392578125	508.9669189453125	372.1124877929688	130.8512878417969	213.7786102294922	381.1003723144531	100.7796020507813	90.13080596923828	314.6056213378906	38.15741348266602	63.8026008605957	265.8526611328125	242.0458831787109	39.38300323486328	312.4408874511719	444.4427795410156	1005.904663085938	132.7295227050781	517.5209350585938	599.01904296875	52.46012496948242	566.361083984375	528.7086181640625	107.6201629638672	626.2387084960938	259.6057739257813	53.29418182373047	697.5648193359375	95.76420593261719	118.4551467895508	655.5571899414063	36.24590301513672	171.2116546630859	838.3429565429688	108.2641754150391	149.0359191894531	
405	4.04	282.6489868164063	1492.911499023438	263.1008911132813	377.7355346679688	1433.31689453125	426.8433532714844	353.734619140625	1442.110229492188	88.69208526611328	261.626953125	1024.886352539063	235.9345245361328	430.6170349121094	996.3067626953125	381.6450500488281	285.810302734375	595.7813110351563	426.5347900390625	285.2119140625	508.6585998535156	371.6971740722656	133.8787841796875	215.6293792724609	381.174560546875	102.0129318237305	91.9990234375	314.9116516113281	38.91780853271484	66.75550079345703	266.2297058105469	242.19189453125	39.3808708190918	312.4087829589844	454.8098449707031	1005.352966308594	132.3885345458984	528.1141357421875	598.3673706054688	52.45540237426758	576.0706787109375	528.189208984375	107.7081298828125	637.6588134765625	259.1820983886719	53.29212188720703	709.2418823242188	95.50227355957031	118.7754516601563	667.3153686523438	35.51673126220703	171.0906829833984	849.8010864257813	108.7185668945313	150.5043334960938	
406	4.05	292.5704040527344	1492.073486328125	261.53466796875	387.2240295410156	1432.799560546875	425.5219116210938	363.5541687011719	1441.097778320313	87.32821655273438	271.9013671875	1024.09912109375	234.450439453125	439.495361328125	995.3692626953125	381.3955993652344	293.0323791503906	595.680419921875	426.0177612304688	292.0456848144531	508.4924011230469	371.3804321289063	137.1895599365234	217.5113372802734	381.2873229980469	103.5566177368164	94.45124053955078	315.1718444824219	39.73678970336914	69.91288757324219	266.6625061035156	242.2687683105469	39.3446159362793	312.3035583496094	465.3029479980469	1004.8212890625	132.0854034423828	538.919921875	597.9132690429688	52.38046646118164	585.9751586914063	527.6758422851563	107.9279098510742	648.0300903320313	258.5482482910156	53.2401008605957	719.3900146484375	94.77471923828125	118.9304122924805	677.3942260742188	34.38837814331055	170.8135223388672	859.6762084960938	108.21484375	151.8176879882813	
407	4.06	302.4270629882813	1491.395751953125	259.9799499511719	396.7783203125	1432.36572265625	424.1446838378906	373.3467407226563	1440.250854492188	85.92018127441406	281.8417663574219	1023.502563476563	232.9324188232422	447.9619445800781	994.5305786132813	381.2118835449219	300.4922790527344	595.6484985351563	425.3522033691406	299.2571411132813	508.3299865722656	370.9553527832031	140.6689910888672	219.5678100585938	381.4101867675781	105.1851043701172	97.23202514648438	315.477294921875	40.56699371337891	73.51057434082031	267.1184387207031	242.3864593505859	39.36421203613281	312.17529296875	476.1401672363281	1004.381652832031	131.9028167724609	550.3678588867188	597.711181640625	52.34853744506836	595.8717651367188	527.2079467773438	108.0736083984375	657.4530029296875	257.6536254882813	53.16293334960938	727.9940795898438	93.49031066894531	119.0083465576172	684.4849853515625	33.52344512939453	170.322021484375	868.139892578125	106.528923034668	152.9929351806641	
408	4.07	311.953125	1490.809448242188	258.3405151367188	406.5855712890625	1432.00390625	422.7021179199219	383.1788330078125	1439.609985351563	84.41251373291016	291.8254089355469	1023.077941894531	231.3108215332031	456.810302734375	993.870849609375	380.8045349121094	308.01904296875	595.7891235351563	424.6951293945313	306.7312316894531	508.2704467773438	370.3673706054688	144.1458892822266	221.9141235351563	381.4344177246094	106.5242004394531	99.37210083007813	316.0935974121094	41.55531311035156	77.39551544189453	267.6518249511719	242.5629272460938	39.36068344116211	312.0751647949219	487.1658020019531	1004.142761230469	131.6510772705078	561.7249755859375	597.5330810546875	52.27915191650391	606.1506958007813	526.8716430664063	108.1570739746094	666.0800170898438	256.51708984375	53.04774856567383	735.052001953125	91.80146789550781	118.9416732788086	690.183349609375	32.2918701171875	169.6573028564453	875.1648559570313	103.7880783081055	153.9960327148438	
409	4.08	321.8986206054688	1490.226318359375	256.7705993652344	416.5143432617188	1431.75732421875	421.2664489746094	393.281005859375	1439.048095703125	82.89959716796875	302.2764587402344	1022.5615234375	229.6169738769531	466.6095581054688	993.4100952148438	380.1681823730469	315.5496215820313	596.0286254882813	424.0049743652344	314.2804870605469	508.3521728515625	369.7854309082031	147.5173645019531	224.4839935302734	381.4684448242188	108.1307144165039	101.9407501220703	316.6502075195313	42.67940139770508	81.52508544921875	268.2529602050781	242.6278991699219	39.32003021240234	311.9971618652344	498.1878967285156	1003.978759765625	131.2627563476563	573.3961791992188	597.4241333007813	52.15457916259766	616.8927612304688	526.6410522460938	108.1949157714844	674.0523681640625	255.1899566650391	52.87250900268555	740.6952514648438	89.65277862548828	118.7807693481445	695.8241577148438	30.08357429504395	168.9145202636719	880.6987915039063	100.1785736083984	154.8588256835938	
